<?xml version="1.0" standalone="no"?><!DOCTYPE svg PUBLIC "-//W3C//DTD SVG 1.1//EN" "http://www.w3.org/Graphics/SVG/1.1/DTD/svg11.dtd"><svg t="1625904128799" class="icon" viewBox="0 0 1024 1024" version="1.1" xmlns="http://www.w3.org/2000/svg" p-id="1098" xmlns:xlink="http://www.w3.org/1999/xlink" width="200" height="200"><defs><style type="text/css"></style></defs><path d="M772.152889 159.990519a75.851852 75.851852 0 0 1 75.851852 75.851851V838.162963a75.851852 75.851852 0 0 1-100.238222 71.831704l-219.401482-74.467556a75.851852 75.851852 0 0 0-48.734815 0l-219.401481 74.467556A75.851852 75.851852 0 0 1 160.009481 838.162963V235.861333a75.851852 75.851852 0 0 1 75.851852-75.851852h536.272593z m-367.634963 169.680592h-3.527111c-25.543111 0-47.521185 10.145185-65.441185 30.113185-17.445926 18.659556-28.558222 42.287407-33.261037 70.542223-1.024 6.33363-1.517037 12.382815-1.517037 18.204444 0 21.504 5.859556 39.594667 17.635555 54.006518 10.676148 13.330963 25.163852 21.940148 43.083852 25.6l4.28563 0.796445 2.123851 0.113778a89.125926 89.125926 0 0 0 11.96563 0.720592 79.454815 79.454815 0 0 0 20.745482-2.749629l4.93037-1.706667c3.242667-1.175704 6.428444-2.503111 9.576296-3.982222l1.384297-0.682667-1.517038 7.168c-6.46637 29.487407-16.687407 50.441481-30.34074 63.032889-9.974519 9.348741-20.195556 14.829037-30.776889 16.668444-10.315852 1.839407-19.304296 1.042963-27.192889-2.294518-6.371556-3.109926-11.093333-7.471407-14.032593-12.951704a20.935111 20.935111 0 0 0-12.325926-10.24 20.821333 20.821333 0 0 0-15.549629 1.573926c-5.12 2.74963-8.533333 6.84563-10.069334 12.098371-1.517037 5.157926-0.948148 10.467556 1.573926 15.530666a72.438519 72.438519 0 0 0 33.697186 31.118222c15.701333 6.826667 32.805926 8.741926 51.389629 5.935408 18.318222-3.640889 35.346963-12.913778 51.38963-27.723852 20.100741-18.090667 34.209185-46.307556 42.533926-84.423111 4.266667-21.409185 7.698963-41.263407 10.296889-59.733333 1.972148-13.880889 3.527111-27.875556 4.683852-42.040889l1.005037-14.108445 0.018963-7.623111c0-20.973037-5.12-39.405037-15.378963-55.068444-10.56237-15.853037-26.263704-25.050074-46.535112-27.477334l-4.854518-0.417185z m256 0h-3.527111c-25.543111 0-47.521185 10.145185-65.441185 30.113185-17.445926 18.659556-28.558222 42.287407-33.261037 70.542223-1.024 6.33363-1.517037 12.382815-1.517037 18.204444 0 21.504 5.859556 39.594667 17.635555 54.006518 10.676148 13.330963 25.163852 21.940148 43.083852 25.6l4.28563 0.796445 2.123851 0.113778a89.125926 89.125926 0 0 0 11.96563 0.720592 79.454815 79.454815 0 0 0 20.745482-2.749629l4.93037-1.706667c3.242667-1.175704 6.428444-2.503111 9.576296-3.982222l1.384297-0.682667-1.517038 7.168c-6.46637 29.487407-16.687407 50.441481-30.34074 63.032889-9.974519 9.348741-20.195556 14.829037-30.776889 16.668444-10.315852 1.839407-19.304296 1.042963-27.192889-2.294518-6.371556-3.109926-11.093333-7.471407-14.032593-12.951704a20.935111 20.935111 0 0 0-12.325926-10.24 20.821333 20.821333 0 0 0-15.549629 1.573926c-5.12 2.74963-8.533333 6.84563-10.069334 12.098371-1.517037 5.157926-0.948148 10.467556 1.573926 15.530666a72.438519 72.438519 0 0 0 33.697186 31.118222c15.701333 6.826667 32.805926 8.741926 51.389629 5.935408 18.318222-3.640889 35.346963-12.913778 51.38963-27.723852 20.100741-18.090667 34.209185-46.307556 42.533926-84.423111 4.266667-21.409185 7.698963-41.263407 10.296889-59.733333 1.972148-13.880889 3.527111-27.875556 4.683852-42.040889l1.005037-14.108445 0.037925-7.623111c0-20.973037-5.12-39.405037-15.397925-55.068444-10.56237-15.853037-26.263704-25.050074-46.535112-27.477334l-4.854518-0.417185z m-172.525037 262.33363a24.007111 24.007111 0 1 0 0 47.995259 24.007111 24.007111 0 0 0 0-47.995259z m-84.897185-221.354667c8.533333 0.720593 14.904889 4.114963 19.114666 10.258963 4.778667 7.262815 7.49037 16.516741 8.002371 27.799704l0.094815 4.114963v5.101037c-0.758519 10.467556-1.706667 21.390222-2.787556 32.199111l-1.744593 16.213333-0.663703 4.664889c-0.037926 0.265481-0.037926 0.32237 0 0.246519l0.398222-0.948149-0.758519 2.522075-1.517037 10.543407-0.32237 1.953185-0.284444-0.265481a20.442074 20.442074 0 0 0-22.945186-2.010074c-3.640889 2.123852-6.807704 3.451259-9.784889 4.209777-3.584 1.042963-6.807704 1.517037-10.031407 1.517037-2.844444 0-5.688889-0.113778-8.533333-0.32237-8.647111-1.687704-15.928889-5.688889-21.257482-11.984593-5.195852-6.693926-7.964444-15.985778-7.964444-27.913481 0-2.294519 0.094815-4.626963 0.284444-7.016296l0.37926-3.811556 0.037925-2.56c3.39437-18.773333 10.94163-35.081481 22.546963-47.748741 9.367704-10.505481 20.100741-15.928889 32.654223-16.687407l3.223703-0.075852h1.858371z m256 0c8.533333 0.720593 14.904889 4.114963 19.114666 10.258963 4.778667 7.262815 7.49037 16.516741 8.002371 27.799704l0.094815 4.114963v5.101037c-0.758519 10.467556-1.706667 21.390222-2.787556 32.199111l-1.744593 16.213333-0.663703 4.664889c-0.037926 0.265481-0.037926 0.32237 0 0.246519l0.398222-0.948149-0.758519 2.522075-1.517037 10.543407-0.32237 1.953185-0.284444-0.265481a20.442074 20.442074 0 0 0-22.945186-2.010074c-3.640889 2.123852-6.807704 3.451259-9.784889 4.209777-3.584 1.042963-6.807704 1.517037-10.031407 1.517037-2.844444 0-5.688889-0.113778-8.533333-0.32237-8.647111-1.687704-15.928889-5.688889-21.257482-11.984593-5.195852-6.693926-7.964444-15.985778-7.964444-27.913481 0-2.294519 0.094815-4.626963 0.284444-7.016296l0.37926-3.811556 0.037925-2.56c3.39437-18.773333 10.94163-35.081481 22.546963-47.748741 9.367704-10.505481 20.100741-15.928889 32.654223-16.687407l3.223703-0.075852h1.858371z" fill="#FEA917" p-id="1099"></path></svg>