<?xml version="1.0" standalone="no"?><!DOCTYPE svg PUBLIC "-//W3C//DTD SVG 1.1//EN" "http://www.w3.org/Graphics/SVG/1.1/DTD/svg11.dtd"><svg t="1625903945019" class="icon" viewBox="0 0 1024 1024" version="1.1" xmlns="http://www.w3.org/2000/svg" p-id="821" xmlns:xlink="http://www.w3.org/1999/xlink" width="200" height="200"><defs><style type="text/css"></style></defs><path d="M498.005333 665.467259a37.793185 37.793185 0 0 1-25.296592-11.07437l-129.061926-129.080889a86.281481 86.281481 0 0 1 121.988741-122.007704l34.379851 34.379852 34.379852-34.379852a86.281481 86.281481 0 0 1 121.988741 122.007704l-129.061926 129.080889c-7.016296 7.016296-16.118519 10.695111-25.296593 11.07437z" fill="#279CFF" p-id="822"></path><path d="M238.554074 143.36l3.280593 0.075852c8.533333 0.568889 16.592593 3.925333 23.096889 10.429629 6.674963 6.637037 9.291852 14.923852 8.722963 23.248593-0.625778 8.571259-4.740741 17.256296-11.624297 24.120889-14.639407 11.757037-26.036148 23.134815-37.413926 37.394963-63.336296 69.101037-97.754074 160.938667-97.754074 255.620741 0 94.776889 34.474667 183.789037 94.833778 255.658666 11.396741 14.241185 22.793481 25.637926 37.034667 37.034667 7.262815 7.205926 11.377778 15.909926 12.003555 24.462222 0.568889 8.116148-1.896296 16.175407-8.192 22.755556-1.972148 3.489185-5.537185 7.016296-9.993481 9.557333-4.228741 2.427259-9.234963 3.982222-14.222222 3.982222-6.637037 0-16.744296-3.356444-23.134815-6.693926l-44.278519-44.259555c-70.542222-85.143704-111.653926-190.881185-111.653926-302.478222 0-111.578074 41.111704-220.216889 114.536297-302.45926 5.082074-5.101037 9.671111-10.012444 14.14637-14.810074 8.874667-9.519407 17.351111-18.583704 27.098074-26.396444 8.874667-5.366519 18.071704-7.755852 26.794667-7.168z m520.343704-4.020148c8.267852-0.587852 16.497778 2.010074 23.134815 8.609185 20.498963 17.559704 38.058667 35.13837 52.717037 52.736 67.527111 82.204444 105.680593 184.964741 105.680592 293.584593 0 99.821037-32.274963 193.782519-90.94637 272.971851-14.65837 20.517926-46.838519 52.754963-64.436148 70.352593-6.769778 6.750815-13.558519 10.088296-23.703704 10.088296-10.126222 0-16.914963-3.337481-23.684741-10.107259a33.374815 33.374815 0 0 1-10.107259-23.684741c0-8.457481 3.337481-16.914963 10.107259-23.703703l12.743111-12.743111c20.536889-20.593778 37.736296-38.153481 44.942223-47.748741 51.674074-68.911407 77.50163-149.295407 77.501629-235.425185 0-91.856593-31.55437-180.868741-88.974222-249.761186a346.832593 346.832593 0 0 0-45.89037-45.89037c-7.205926-7.149037-11.320889-15.834074-11.927704-24.405333a29.202963 29.202963 0 0 1 8.722963-23.267556c6.864593-6.864593 15.54963-10.998519 24.120889-11.605333z" fill="#279CFF" fill-opacity=".5" p-id="823"></path><path d="M702.027852 284.539259l2.768592 0.075852c8.571259 0.625778 17.256296 4.740741 24.139852 11.624296 50.346667 56.263111 79.834074 130.066963 79.834074 203.851852 0 67.754667-23.514074 135.528296-67.621926 188.624593-1.896296 3.413333-5.233778 6.162963-9.53837 8.00237a38.267259 38.267259 0 0 1-14.753185 2.787556c-6.485333 0-13.027556-3.053037-19.531852-6.314667-7.49037-5.518222-11.851852-13.918815-13.12237-22.831407-1.270519-8.912593 0.568889-18.185481 5.707852-25.050074 34.190222-42.742519 51.275852-94.01837 51.275851-148.138667 0-56.945778-22.793481-113.872593-62.539851-156.444444a29.202963 29.202963 0 0 1-8.722963-23.267556c0.625778-8.571259 4.740741-17.256296 11.624296-24.120889a29.202963 29.202963 0 0 1 23.248592-8.722963z m-401.768296-1.327407c8.457481 0 16.933926 3.356444 23.703703 10.126222 6.769778 6.769778 10.107259 15.227259 10.10726 23.684741 0 8.457481-3.337481 16.914963-9.993482 23.570963-39.822222 42.666667-65.554963 96.692148-65.554963 150.755555 0 54.044444 22.793481 108.032 65.422222 150.660741 6.788741 6.769778 10.126222 15.246222 10.126223 23.703704 0 8.438519-3.337481 16.914963-10.10726 23.684741-6.769778 6.769778-13.558519 10.107259-23.703703 10.107259-10.126222 0-16.914963-3.337481-23.684741-10.107259-53.191111-53.210074-85.655704-124.169481-85.655704-198.030223 0-73.936593 29.582222-144.896 85.655704-198.030222a33.374815 33.374815 0 0 1 23.703704-10.107259z" fill="#279CFF" fill-opacity=".5" p-id="824"></path></svg>