<?xml version="1.0" standalone="no"?><!DOCTYPE svg PUBLIC "-//W3C//DTD SVG 1.1//EN" "http://www.w3.org/Graphics/SVG/1.1/DTD/svg11.dtd"><svg t="1625904159028" class="icon" viewBox="0 0 1024 1024" version="1.1" xmlns="http://www.w3.org/2000/svg" p-id="1235" xmlns:xlink="http://www.w3.org/1999/xlink" width="200" height="200"><defs><style type="text/css"></style></defs><path d="M849.540741 479.497481L499.863704 853.902222l56.604444 56.623408a75.851852 75.851852 0 0 0 107.273482 0L918.509037 655.739259a75.851852 75.851852 0 0 0 0-107.273481l-68.949333-68.968297zM167.215407 227.384889l-0.246518 4.114963-8.286815 247.201185a75.851852 75.851852 0 0 0 19.285333 53.134222l2.882371 3.034074 146.944 146.944 381.231407-342.85037-166.21037-166.21037a75.851852 75.851852 0 0 0-51.522371-22.186667h-4.456296l-246.404741 7.642074a75.851852 75.851852 0 0 0-73.216 69.176889z m171.38726 103.196444a64 64 0 1 1 90.510222 90.510223 64 64 0 0 1-90.510222-90.510223z" fill="#FD6112" p-id="1236"></path><path d="M786.944 354.986667L332.496593 763.657481a37.925926 37.925926 0 0 0-1.782519 54.708149l30.928593 31.668148a37.925926 37.925926 0 0 0 54.859852-0.625778l417.640296-447.16563a33.109333 33.109333 0 0 0-0.777482-46.023111 33.754074 33.754074 0 0 0-46.421333-1.232592z" fill="#FD6112" fill-opacity=".5" p-id="1237"></path></svg>