<?xml version="1.0" standalone="no"?><!DOCTYPE svg PUBLIC "-//W3C//DTD SVG 1.1//EN" "http://www.w3.org/Graphics/SVG/1.1/DTD/svg11.dtd"><svg t="1625904082836" class="icon" viewBox="0 0 1024 1024" version="1.1" xmlns="http://www.w3.org/2000/svg" p-id="960" xmlns:xlink="http://www.w3.org/1999/xlink" width="200" height="200"><defs><style type="text/css"></style></defs><path d="M512 96.009481c114.87763 0 208.004741 93.108148 208.004741 207.985778s-416.009481 114.87763-416.009482 0S397.12237 96.009481 512 96.009481z m0 62.577778a145.445926 145.445926 0 0 0-145.142519 136.210963l-0.151703 2.996148 1.668741 1.232593c4.133926 2.920296 10.24 6.144 18.147555 9.291852l4.096 1.573926c30.302815 11.150222 74.619259 17.692444 121.381926 17.692444 46.762667 0 91.079111-6.542222 121.362963-17.692444 9.91763-3.640889 17.445926-7.471407 22.262518-10.865778l1.630815-1.232593-0.113777-2.996148a145.445926 145.445926 0 0 0-140.515556-136.154074L512 158.587259z" fill="#2CABFE" fill-opacity=".5" p-id="961"></path><path d="M221.108148 288.009481h581.783704a75.851852 75.851852 0 0 1 75.700148 70.84563l28.065185 424.296296a75.851852 75.851852 0 0 1-75.700148 80.858074H193.042963a75.851852 75.851852 0 0 1-75.700148-80.858074l28.065185-424.296296a75.851852 75.851852 0 0 1 75.681185-70.84563z m286.435556 404.631704l-70.01126 36.807111a18.962963 18.962963 0 0 1-27.515259-19.986963l13.368889-77.975703a18.962963 18.962963 0 0 0-5.461333-16.782223l-56.642371-55.220148a18.962963 18.962963 0 0 1 10.505482-32.331852l78.298074-11.377777a18.962963 18.962963 0 0 0 14.279111-10.372741l35.00563-70.940445a18.962963 18.962963 0 0 1 34.000592 0l35.024593 70.921482a18.962963 18.962963 0 0 0 14.279111 10.391704l78.279111 11.377777a18.962963 18.962963 0 0 1 10.505482 32.331852l-56.642371 55.220148a18.962963 18.962963 0 0 0-5.461333 16.782223l13.368889 77.975703a18.962963 18.962963 0 0 1-27.496297 19.986963l-70.030222-36.807111a18.962963 18.962963 0 0 0-17.635555 0z" fill="#279CFF" p-id="962"></path></svg>