<svg xmlns="http://www.w3.org/2000/svg" xmlns:xlink="http://www.w3.org/1999/xlink" fill="none" version="1.1" width="62.447021484375" height="55.36577606201172" viewBox="0 0 62.447021484375 55.36577606201172"><g><g><path d="M1.5,11.77386474609375Q11.45741,11.77386474609375,20.8245,14.87170474609375Q29.8843,17.86788474609375,37.6321,23.501964746093748Q45.2854,29.06726474609375,50.924,36.66806474609375Q56.6266,44.35516474609375,59.7094,53.37606474609375Q59.7102,53.37846474609375,59.711,53.38086474609375Q59.7916,53.61656474609375,59.7916,53.86576474609375Q59.7916,53.93946474609375,59.7844,54.01276474609375Q59.7772,54.08616474609375,59.7628,54.15836474609375Q59.7484,54.23066474609375,59.727,54.30116474609375Q59.7056,54.37176474609375,59.6774,54.43976474609375Q59.6492,54.50786474609375,59.6145,54.57286474609375Q59.5797,54.63786474609375,59.5388,54.69916474609375Q59.4979,54.76036474609375,59.4511,54.81736474609375Q59.4044,54.87436474609375,59.3523,54.92646474609375Q59.3001,54.97856474609375,59.2432,55.02526474609375Q59.1862,55.07206474609375,59.1249,55.11296474609375Q59.0637,55.15396474609375,58.9987,55.18866474609375Q58.9337,55.22336474609375,58.8656,55.25156474609375Q58.7975,55.27976474609375,58.727,55.30116474609375Q58.6565,55.32256474609375,58.5842,55.33696474609375Q58.512,55.35136474609375,58.4386,55.35856474609375Q58.3653,55.36576474609375,58.2916,55.36576474609375Q58.175,55.36576474609375,58.0597,55.34776474609375Q57.9445,55.32976474609375,57.8334,55.29406474609375Q57.7224,55.25846474609375,57.6182,55.20606474609375Q57.514,55.15376474609375,57.4191,55.08586474609375Q57.3242,55.01806474609375,57.241,54.93636474609375Q57.1577,54.85466474609375,57.0881,54.76106474609375Q57.0185,54.66756474609375,56.9642,54.56436474609375Q56.9099,54.46106474609375,56.8722,54.35076474609375Q56.8707,54.34656474609375,56.8693,54.34236474609375Q53.9376,45.76566474609375,48.5146,38.45546474609375Q43.1496,31.22346474609375,35.8678,25.928264746093753Q28.4982,20.56929474609375,19.8826,17.71998474609375Q10.9742,14.77386474609375,1.5,14.77386474609375Q1.4263097,14.77386474609375,1.3529740000000001,14.76664474609375Q1.279639,14.75941474609375,1.207365,14.74504474609375Q1.13509,14.73066474609375,1.064573,14.709274746093751Q0.994056,14.68788474609375,0.925975,14.65968474609375Q0.857894,14.63148474609375,0.792905,14.59674474609375Q0.727916,14.56200474609375,0.666645,14.52106474609375Q0.605373,14.48012474609375,0.54841,14.43338474609375Q0.49144999999999994,14.38663474609375,0.43934000000000006,14.33452474609375Q0.38722999999999996,14.28241474609375,0.3404799999999999,14.22545474609375Q0.2937399999999999,14.16849174609375,0.2527999999999999,14.10721974609375Q0.21185999999999994,14.04594874609375,0.17711999999999994,13.98095974609375Q0.14237999999999995,13.91597074609375,0.11417999999999995,13.84788974609375Q0.08597999999999995,13.77980874609375,0.06458999999999993,13.70929174609375Q0.043199999999999905,13.63877474609375,0.028820000000000068,13.56649974609375Q0.014450000000000074,13.49422574609375,0.007220000000000004,13.42089074609375Q0,13.34755504609375,0,13.27386474609375Q0,13.20017444609375,0.007220000000000004,13.12683874609375Q0.014450000000000074,13.05350374609375,0.028820000000000068,12.98122974609375Q0.043199999999999905,12.90895474609375,0.06458999999999993,12.83843774609375Q0.08597999999999995,12.76792074609375,0.11417999999999995,12.69983974609375Q0.14237999999999995,12.63175874609375,0.17711999999999994,12.56676974609375Q0.21185999999999994,12.50178074609375,0.2527999999999999,12.44050974609375Q0.2937399999999999,12.37923774609375,0.3404799999999999,12.32227474609375Q0.38722999999999996,12.26531474609375,0.43934000000000006,12.21320474609375Q0.49144999999999994,12.16109474609375,0.54841,12.11434474609375Q0.605373,12.06760474609375,0.666645,12.02666474609375Q0.727916,11.98572474609375,0.792905,11.95098474609375Q0.857894,11.91624474609375,0.925975,11.88804474609375Q0.994056,11.85984474609375,1.064573,11.838454746093749Q1.13509,11.81706474609375,1.207365,11.80268474609375Q1.279639,11.78831474609375,1.3529740000000001,11.78108474609375Q1.4263097,11.77386474609375,1.5,11.77386474609375Z" fill-rule="evenodd" fill="#E4F40B" fill-opacity="1"/></g><g><path d="M24.98598185546875,3.2233123779296875L32.21090185546875,14.778712377929688L52.27860185546875,6.292092377929688L48.62330185546875,26.499612377929687L60.63200185546875,26.932912377929686L50.98090185546875,36.78141237792969C50.98090185546875,36.78141237792969,42.63650185546875,27.201712377929688,36.96560185546875,23.354812377929687C31.29470185546875,19.50791237792969,19.63690185546875,15.518712377929688,19.63690185546875,15.518712377929688Q19.63690185546875,15.518712377929688,24.98598185546875,3.2233123779296875L24.98598185546875,3.2233123779296875Z" fill-rule="evenodd" fill="#E4F40B" fill-opacity="1"/></g><g><path d="M24.98598185546875,3.2233123779296875L32.21090185546875,14.778812377929688L50.98090185546875,6.283672377929688L37.834401855468755,24.060212377929687C37.834401855468755,24.060212377929687,34.69450185546875,20.771812377929688,29.89580185546875,18.003512377929688C25.097151855468752,15.235212377929688,19.63690185546875,14.140212377929688,19.63690185546875,14.140212377929688Q19.63690185546875,14.140212377929688,24.98598185546875,3.2233123779296875L24.98598185546875,3.2233123779296875Z" fill-rule="evenodd" fill="#E4F40B" fill-opacity="1"/></g><g><path d="M25.057910546875,0C26.581300546875,0,27.816250546875,1.23496,27.816250546875,2.75835C27.816250546875,4.28174,26.581300546875,5.51669,25.057910546875,5.51669C23.534520546875,5.51669,22.299560546875,4.28174,22.299560546875,2.75835C22.299560546875,1.23496,23.534520546875,0,25.057910546875,0Q25.057910546875,0,25.057910546875,0Z" fill-rule="evenodd" fill="#E4F40B" fill-opacity="1"/></g><g><path d="M51.4136926171875,3.303436279296875C52.7538126171875,3.303436279296875,53.8402026171875,4.389826279296875,53.8402026171875,5.729946279296875C53.8402026171875,7.070066279296875,52.7538126171875,8.156456279296876,51.4136926171875,8.156456279296876C50.0735726171875,8.156456279296876,48.9871826171875,7.070066279296875,48.9871826171875,5.729946279296875C48.9871826171875,4.389826279296875,50.0735726171875,3.303436279296875,51.4136926171875,3.303436279296875Q51.4136926171875,3.303436279296875,51.4136926171875,3.303436279296875Z" fill-rule="evenodd" fill="#E4F40B" fill-opacity="1"/></g><g><path d="M59.68870888671875,24.900863647460938C61.21209888671875,24.900863647460938,62.44704888671875,26.13582364746094,62.44704888671875,27.659213647460938C62.44704888671875,29.182603647460937,61.21209888671875,30.417553647460938,59.68870888671875,30.417553647460938C58.16531888671875,30.417553647460938,56.93035888671875,29.182603647460937,56.93035888671875,27.659213647460938C56.93035888671875,26.13582364746094,58.16531888671875,24.900863647460938,59.68870888671875,24.900863647460938Q59.68870888671875,24.900863647460938,59.68870888671875,24.900863647460938Z" fill-rule="evenodd" fill="#E4F40B" fill-opacity="1"/></g></g></svg>