<svg xmlns="http://www.w3.org/2000/svg" xmlns:xlink="http://www.w3.org/1999/xlink" fill="none" version="1.1" width="63.50262451171875" height="60.12498474121094" viewBox="0 0 63.50262451171875 60.12498474121094"><g transform="matrix(0.9563047885894775,-0.2923716604709625,0.2923716604709625,0.9563047885894775,-4.258154909337463,1.065144512551342)"><g><path d="M1.4344482421875,25.73834228515625Q9.7126682421875,25.73834228515625,17.5008482421875,28.26851228515625Q25.0349482421875,30.71613228515625,31.4787482421875,35.31917228515625Q37.8456482421875,39.86724228515625,42.5371482421875,46.07974228515625Q47.2847482421875,52.36654228515625,49.8512482421875,59.74564228515625Q49.9344482421875,59.98494228515625,49.9344482421875,60.23834228515625Q49.9344482421875,60.31204228515625,49.9272482421875,60.38534228515625Q49.9200482421875,60.45874228515625,49.9056482421875,60.53094228515625Q49.8912482421875,60.60324228515625,49.8698482421875,60.67374228515625Q49.8484482421875,60.74424228515625,49.8202482421875,60.81234228515625Q49.7920482421875,60.88044228515625,49.7573482421875,60.94544228515625Q49.7225482421875,61.01044228515625,49.6816482421875,61.07174228515625Q49.6407482421875,61.13294228515625,49.5939482421875,61.18994228515625Q49.5472482421875,61.24694228515625,49.4951482421875,61.29904228515625Q49.4430482421875,61.35114228515625,49.3860482421875,61.39784228515625Q49.3290482421875,61.44464228515625,49.2678482421875,61.48554228515625Q49.2065482421875,61.52644228515625,49.1415482421875,61.56124228515625Q49.0765482421875,61.59594228515625,49.0084482421875,61.62414228515625Q48.9403482421875,61.65234228515625,48.8698482421875,61.67374228515625Q48.7993482421875,61.69514228515625,48.7270482421875,61.70954228515625Q48.6548482421875,61.72394228515625,48.5814482421875,61.73114228515625Q48.5081482421875,61.73834228515625,48.4344482421875,61.73834228515625Q48.3183482421875,61.73834228515625,48.2036482421875,61.72044228515625Q48.0888482421875,61.70264228515625,47.9782482421875,61.66724228515625Q47.8676482421875,61.63194228515625,47.7637482421875,61.58004228515625Q47.6599482421875,61.52814228515625,47.5652482421875,61.46084228515625Q47.4706482421875,61.39354228515625,47.3874482421875,61.31254228515625Q47.3043482421875,61.23144228515625,47.2346482421875,61.13864228515625Q47.1649482421875,61.04574228515625,47.1103482421875,60.94324228515625Q47.0558482421875,60.84074228515625,47.0176482421875,60.73104228515625Q47.0165482421875,60.72764228515625,47.0153482421875,60.72424228515625Q44.6041482421875,53.79484228515625,40.1431482421875,47.88764228515625Q35.7282482421875,42.041542285156254,29.7349482421875,37.76034228515625Q23.6677482421875,33.426322285156246,16.573948242187498,31.12172228515625Q9.237598242187499,28.73834228515625,1.4344482421875,28.73834228515625Q1.3607579421875,28.73834228515625,1.2874222421875001,28.73112228515625Q1.2140872421875,28.72389228515625,1.1418132421875,28.70952228515625Q1.0695382421875,28.69514228515625,0.9990212421875,28.67375228515625Q0.9285042421875,28.65236228515625,0.8604232421875,28.62416228515625Q0.7923422421875,28.59596228515625,0.7273532421875,28.56122228515625Q0.6623642421875,28.52648228515625,0.6010932421875,28.48554228515625Q0.5398212421875,28.44460228515625,0.48285824218749995,28.39786228515625Q0.42589824218749994,28.35111228515625,0.37378824218750006,28.29900228515625Q0.32167824218749996,28.24689228515625,0.2749282421874999,28.18993228515625Q0.2281882421874999,28.13296928515625,0.1872482421874999,28.07169728515625Q0.14630824218749994,28.01042628515625,0.11156824218749994,27.94543728515625Q0.07682824218749995,27.88044828515625,0.04862824218749995,27.81236728515625Q0.020428242187499945,27.74428628515625,-0.0009617578125000747,27.67376928515625Q-0.022351757812500095,27.60325228515625,-0.03673175781249993,27.53097728515625Q-0.051101757812499926,27.45870328515625,-0.058331757812499996,27.38536828515625Q-0.0655517578125,27.31203258515625,-0.0655517578125,27.23834228515625Q-0.0655517578125,27.16465198515625,-0.058331757812499996,27.09131628515625Q-0.051101757812499926,27.01798128515625,-0.03673175781249993,26.94570728515625Q-0.022351757812500095,26.87343228515625,-0.0009617578125000747,26.80291528515625Q0.020428242187499945,26.73239828515625,0.04862824218749995,26.66431728515625Q0.07682824218749995,26.59623628515625,0.11156824218749994,26.53124728515625Q0.14630824218749994,26.46625828515625,0.1872482421874999,26.40498728515625Q0.2281882421874999,26.34371528515625,0.2749282421874999,26.28675228515625Q0.32167824218749996,26.22979228515625,0.37378824218750006,26.17768228515625Q0.42589824218749994,26.12557228515625,0.48285824218749995,26.07882228515625Q0.5398212421875,26.03208228515625,0.6010932421875,25.99114228515625Q0.6623642421875,25.95020228515625,0.7273532421875,25.91546228515625Q0.7923422421875,25.88072228515625,0.8604232421875,25.85252228515625Q0.9285042421875,25.82432228515625,0.9990212421875,25.80293228515625Q1.0695382421875,25.78154228515625,1.1418132421875,25.76716228515625Q1.2140872421875,25.75279228515625,1.2874222421875001,25.74556228515625Q1.3607579421875,25.73834228515625,1.4344482421875,25.73834228515625Z" fill-rule="evenodd" fill="#0909EE" fill-opacity="1"/></g><g><path d="M21.57746328125,18.436279296875L27.56961328125,28.077859296874998L44.21311328125,20.996799296875L41.181513281250005,37.857379296874996L51.14111328125,38.218979296875L43.13681328125,46.436279296875C43.13681328125,46.436279296875,36.21621328125,38.443279296875005,31.51301328125,35.233479296875004C26.80972328125,32.023679296875,17.14111328125,28.695279296875,17.14111328125,28.695279296875Q17.14111328125,28.695279296875,21.57746328125,18.436279296875L21.57746328125,18.436279296875Z" fill-rule="evenodd" fill="#0909EE" fill-opacity="1"/></g><g><path d="M21.96619376953125,18.149200439453125L27.95931376953125,28.131410439453127L43.52911376953125,20.792900439453124L32.62401376953125,36.149200439453125C32.62401376953125,36.149200439453125,30.019413769531248,33.30850043945313,26.03891376953125,30.917100439453122C22.05841376953125,28.525700439453125,17.52911376953125,27.579780439453124,17.52911376953125,27.579780439453124Q17.52911376953125,27.579780439453124,21.96619376953125,18.149200439453125L21.96619376953125,18.149200439453125Z" fill-rule="evenodd" fill="#0909EE" fill-opacity="1"/></g><g><path d="M20.4757080078125,14.778549194335938C21.8564180078125,14.778549194335938,22.9757080078125,15.897839194335937,22.9757080078125,17.278549194335938C22.9757080078125,18.659259194335938,21.8564180078125,19.778549194335938,20.4757080078125,19.778549194335938C19.0949980078125,19.778549194335938,17.9757080078125,18.659259194335938,17.9757080078125,17.278549194335938C17.9757080078125,15.897839194335937,19.0949980078125,14.778549194335938,20.4757080078125,14.778549194335938Q20.4757080078125,14.778549194335938,20.4757080078125,14.778549194335938Z" fill-rule="evenodd" fill="#0909EE" fill-opacity="1"/></g><g><path d="M43.972198486328125,18.802215576171875C45.07676848632813,18.802215576171875,45.972198486328125,19.697647576171875,45.972198486328125,20.802215576171875C45.972198486328125,21.906785576171874,45.07676848632813,22.802215576171875,43.972198486328125,22.802215576171875C42.867630486328125,22.802215576171875,41.972198486328125,21.906785576171874,41.972198486328125,20.802215576171875C41.972198486328125,19.697647576171875,42.867630486328125,18.802215576171875,43.972198486328125,18.802215576171875Q43.972198486328125,18.802215576171875,43.972198486328125,18.802215576171875Z" fill-rule="evenodd" fill="#0909EE" fill-opacity="1"/></g><g><path d="M49.481597900390625,36.19488525390625C50.862307900390626,36.19488525390625,51.981597900390625,37.31417525390625,51.981597900390625,38.69488525390625C51.981597900390625,40.07559525390625,50.862307900390626,41.19488525390625,49.481597900390625,41.19488525390625C48.100887900390624,41.19488525390625,46.981597900390625,40.07559525390625,46.981597900390625,38.69488525390625C46.981597900390625,37.31417525390625,48.100887900390624,36.19488525390625,49.481597900390625,36.19488525390625Q49.481597900390625,36.19488525390625,49.481597900390625,36.19488525390625Z" fill-rule="evenodd" fill="#0909EE" fill-opacity="1"/></g></g></svg>