<svg xmlns="http://www.w3.org/2000/svg" xmlns:xlink="http://www.w3.org/1999/xlink" fill="none" version="1.1" width="55.1961669921875" height="50.475982666015625" viewBox="0 0 55.1961669921875 50.475982666015625"><g transform="matrix(0.9975640773773193,0.06975646317005157,-0.06975646317005157,0.9975640773773193,0.01892090972501137,-0.3326296549694234)"><g><path d="M4.7720947265625,11.064376831054688Q13.0503147265625,11.064376831054688,20.8384947265625,13.594546831054688Q28.3725947265625,16.042166831054686,34.8163947265625,20.645206831054686Q41.1832947265625,25.19327683105469,45.8747947265625,31.405776831054688Q50.6223947265625,37.69257683105469,53.1888947265625,45.07167683105469Q53.2720947265625,45.31097683105469,53.2720947265625,45.56437683105469Q53.2720947265625,45.63807683105469,53.2648947265625,45.711376831054686Q53.2576947265625,45.784776831054685,53.2432947265625,45.85697683105469Q53.2288947265625,45.929276831054686,53.2074947265625,45.99977683105469Q53.1860947265625,46.070276831054684,53.1578947265625,46.138376831054686Q53.1296947265625,46.20647683105469,53.0949947265625,46.271476831054684Q53.0601947265625,46.33647683105469,53.0192947265625,46.397776831054685Q52.9783947265625,46.458976831054684,52.9315947265625,46.51597683105469Q52.8848947265625,46.57297683105469,52.8327947265625,46.625076831054685Q52.7806947265625,46.67717683105469,52.7236947265625,46.72387683105469Q52.6666947265625,46.770676831054686,52.6054947265625,46.81157683105469Q52.5441947265625,46.85247683105469,52.4791947265625,46.887276831054685Q52.4141947265625,46.921976831054685,52.3460947265625,46.95017683105469Q52.2779947265625,46.97837683105469,52.2074947265625,46.99977683105469Q52.1369947265625,47.02117683105469,52.0646947265625,47.03557683105469Q51.9924947265625,47.049976831054686,51.9190947265625,47.05717683105469Q51.8457947265625,47.06437683105469,51.7720947265625,47.06437683105469Q51.6559947265625,47.06437683105469,51.5412947265625,47.04647683105469Q51.4264947265625,47.02867683105469,51.3158947265625,46.993276831054686Q51.2052947265625,46.95797683105469,51.1013947265625,46.90607683105469Q50.9975947265625,46.85417683105469,50.9028947265625,46.786876831054684Q50.8082947265625,46.71957683105469,50.7250947265625,46.638576831054685Q50.6419947265625,46.557476831054686,50.5722947265625,46.46467683105469Q50.5025947265625,46.37177683105469,50.4479947265625,46.26927683105469Q50.3934947265625,46.16677683105469,50.3552947265625,46.05707683105469Q50.3541947265625,46.05367683105469,50.3529947265625,46.05027683105469Q47.9417947265625,39.12087683105469,43.4807947265625,33.213676831054684Q39.0658947265625,27.367576831054688,33.0725947265625,23.086376831054686Q27.0053947265625,18.752356831054687,19.911594726562498,16.447756831054686Q12.575244726562499,14.064376831054688,4.7720947265625,14.064376831054688Q4.6984044265625,14.064376831054688,4.6250687265625,14.057156831054687Q4.5517337265625,14.049926831054687,4.4794597265625,14.035556831054688Q4.4071847265625,14.021176831054687,4.3366677265625,13.999786831054688Q4.2661507265625005,13.978396831054688,4.1980697265625,13.950196831054688Q4.1299887265625,13.921996831054688,4.0649997265625,13.887256831054687Q4.0000107265625005,13.852516831054688,3.9387397265625,13.811576831054687Q3.8774677265625,13.770636831054688,3.8205047265625,13.723896831054688Q3.7635447265625,13.677146831054687,3.7114347265625,13.625036831054688Q3.6593247265624997,13.572926831054687,3.6125747265625,13.515966831054687Q3.5658347265624997,13.459003831054687,3.5248947265624997,13.397731831054687Q3.4839547265624997,13.336460831054687,3.4492147265625,13.271471831054688Q3.4144747265625,13.206482831054688,3.3862747265625,13.138401831054688Q3.3580747265625,13.070320831054687,3.3366847265625,12.999803831054688Q3.3152947265624997,12.929286831054688,3.3009147265625,12.857011831054688Q3.2865447265625,12.784737831054688,3.2793147265625002,12.711402831054688Q3.2720947265625,12.638067131054688,3.2720947265625,12.564376831054688Q3.2720947265625,12.490686531054687,3.2793147265625002,12.417350831054687Q3.2865447265625,12.344015831054687,3.3009147265625,12.271741831054687Q3.3152947265624997,12.199466831054687,3.3366847265625,12.128949831054687Q3.3580747265625,12.058432831054688,3.3862747265625,11.990351831054687Q3.4144747265625,11.922270831054687,3.4492147265625,11.857281831054687Q3.4839547265624997,11.792292831054688,3.5248947265624997,11.731021831054688Q3.5658347265624997,11.669749831054688,3.6125747265625,11.612786831054688Q3.6593247265624997,11.555826831054688,3.7114347265625,11.503716831054687Q3.7635447265625,11.451606831054688,3.8205047265625,11.404856831054687Q3.8774677265625,11.358116831054687,3.9387397265625,11.317176831054688Q4.0000107265625005,11.276236831054687,4.0649997265625,11.241496831054688Q4.1299887265625,11.206756831054687,4.1980697265625,11.178556831054687Q4.2661507265625005,11.150356831054687,4.3366677265625,11.128966831054687Q4.4071847265625,11.107576831054688,4.4794597265625,11.093196831054687Q4.5517337265625,11.078826831054688,4.6250687265625,11.071596831054688Q4.6984044265625,11.064376831054688,4.7720947265625,11.064376831054688Z" fill-rule="evenodd" fill="#0F5243" fill-opacity="1"/></g><g><path d="M24.91517080078125,3.7623138427734375L30.90732080078125,13.403893842773437L47.55082080078125,6.322833842773438L44.519220800781255,23.183413842773437L54.47882080078125,23.545013842773436L46.47452080078125,31.762313842773438C46.47452080078125,31.762313842773438,39.55392080078125,23.76931384277344,34.85072080078125,20.559513842773438C30.14743080078125,17.34971384277344,20.47882080078125,14.021313842773438,20.47882080078125,14.021313842773438Q20.47882080078125,14.021313842773438,24.91517080078125,3.7623138427734375L24.91517080078125,3.7623138427734375Z" fill-rule="evenodd" fill="#0F5243" fill-opacity="1"/></g><g><path d="M25.30384025390625,3.475250244140625L31.29696025390625,13.457460244140625L46.86676025390625,6.118950244140625L35.96166025390625,21.475250244140625C35.96166025390625,21.475250244140625,33.35706025390625,18.634550244140627,29.37656025390625,16.243150244140622C25.39606025390625,13.851750244140625,20.86676025390625,12.905830244140626,20.86676025390625,12.905830244140626Q20.86676025390625,12.905830244140626,25.30384025390625,3.475250244140625L25.30384025390625,3.475250244140625Z" fill-rule="evenodd" fill="#0F5243" fill-opacity="1"/></g><g><path d="M23.81341552734375,0.1046295166015625C25.19412552734375,0.1046295166015625,26.31341552734375,1.2239195166015624,26.31341552734375,2.6046295166015625C26.31341552734375,3.9853395166015626,25.19412552734375,5.1046295166015625,23.81341552734375,5.1046295166015625C22.43270552734375,5.1046295166015625,21.31341552734375,3.9853395166015626,21.31341552734375,2.6046295166015625C21.31341552734375,1.2239195166015624,22.43270552734375,0.1046295166015625,23.81341552734375,0.1046295166015625Q23.81341552734375,0.1046295166015625,23.81341552734375,0.1046295166015625Z" fill-rule="evenodd" fill="#0F5243" fill-opacity="1"/></g><g><path d="M47.309814453125,4.1282806396484375C48.414384453125,4.1282806396484375,49.309814453125,5.023712639648437,49.309814453125,6.1282806396484375C49.309814453125,7.232850639648437,48.414384453125,8.128280639648438,47.309814453125,8.128280639648438C46.205246453125,8.128280639648438,45.309814453125,7.232850639648437,45.309814453125,6.1282806396484375C45.309814453125,5.023712639648437,46.205246453125,4.1282806396484375,47.309814453125,4.1282806396484375Q47.309814453125,4.1282806396484375,47.309814453125,4.1282806396484375Z" fill-rule="evenodd" fill="#0F5243" fill-opacity="1"/></g><g><path d="M52.81927490234375,21.520904541015625C54.19998490234375,21.520904541015625,55.31927490234375,22.640194541015624,55.31927490234375,24.020904541015625C55.31927490234375,25.401614541015626,54.19998490234375,26.520904541015625,52.81927490234375,26.520904541015625C51.43856490234375,26.520904541015625,50.31927490234375,25.401614541015626,50.31927490234375,24.020904541015625C50.31927490234375,22.640194541015624,51.43856490234375,21.520904541015625,52.81927490234375,21.520904541015625Q52.81927490234375,21.520904541015625,52.81927490234375,21.520904541015625Z" fill-rule="evenodd" fill="#0F5243" fill-opacity="1"/></g></g></svg>